<svg id="Layer_1" xmlns="http://www.w3.org/2000/svg" viewBox="165.5 362.5 284 75"><style>.st0{fill:#FFF}</style><path class="st0" d="M334.1 402.3h9.2l-4.6-14.4zM318.5 393.4c-3.6 0-5.8 2.7-5.8 8.1 0 5.3 2.1 8 5.7 8s5.8-2.7 5.8-8.1c0-5.3-2.1-8-5.7-8zM359 393.3c-3.3 0-5.5 2.8-5.5 8.1s2 8 5.1 8c2.5 0 4-1.3 5.3-3.5v-9.8c-1.1-1.5-2.6-2.8-4.9-2.8zM285.4 393.2c-3.2 0-4.8 2-4.8 4.8 0 3 1.9 4.8 4.8 4.8 3.1 0 4.8-1.7 4.8-4.7s-1.6-4.9-4.8-4.9z"/><path class="st0" d="M446.5 420v-39.5c0-9.9-8.1-18-18-18h-245c-9.9 0-18 8.1-18 18v39c0 9.9 8.1 18 18 18h245c4.6 0 8.8-1.8 12-4.6 2.6 2.2 5.8 3.9 9 4.6-2.1-2.4-3.2-6.2-3-17.5zm-235.2-9.2h-2.7l-5.4-22.2-5.4 22.2h-2.6l-5.4-24.7h2.2l4.7 22.7 5.4-22.7h2.4l5.5 22.7 4.7-22.7h2.1l-5.5 24.7zm12.5 0h-2.1V392h2.1v18.8zm-1.1-24c-.9 0-1.5-.7-1.5-1.5s.6-1.5 1.5-1.5c1 0 1.6.7 1.6 1.5s-.7 1.5-1.6 1.5zm11.2 24.4c-2 0-3.3-1.2-3.3-3.6v-23.3l2.1-.3v23.5c0 1.2.5 1.8 1.5 1.8.5 0 .9-.1 1.3-.3l.6 1.5c-.7.5-1.5.7-2.2.7zm9.8 0c-2 0-3.3-1.2-3.3-3.6v-23.3l2.1-.3v23.5c0 1.2.5 1.8 1.5 1.8.5 0 .9-.1 1.3-.3l.6 1.5c-.6.5-1.4.7-2.2.7zm9-.4h-2.1V392h2.1v18.8zm-1.1-24c-.9 0-1.5-.7-1.5-1.5s.6-1.5 1.5-1.5c1 0 1.6.7 1.6 1.5s-.6 1.5-1.6 1.5zm21.6 24h-2.1v-13.2c0-3.1-1.3-4.4-3.6-4.4-2.6 0-4.3 1.6-5.8 3.9v13.6h-2.1V392h1.8l.2 3.2c1.5-2.1 3.6-3.6 6.3-3.6 3.4 0 5.3 2.1 5.3 5.8v13.4zm19.1-12.7c0 3.7-2.6 6.2-6.8 6.2-.9 0-1.7-.1-2.4-.4-.9.5-1.4 1.3-1.4 2.2 0 1.1.7 1.9 3 1.9h3.1c3.7 0 6 2 6 4.8 0 3.4-2.7 5.4-8.2 5.4-5.7 0-7.8-1.7-7.8-5.4h1.9c0 2.6 1.4 3.7 5.9 3.7 4.4 0 6-1.3 6-3.6 0-2-1.6-3.1-4.2-3.1h-3.1c-3.1 0-4.6-1.5-4.6-3.3 0-1.3.8-2.4 2.1-3.2-2.2-1.1-3.2-2.8-3.2-5.3 0-3.8 2.8-6.4 6.9-6.4 5 .1 6.4-.5 8.2-1.2l.6 2c-1.3.4-3 .5-5.2.5 2 1 3.2 2.6 3.2 5.2zm17.7-10h-7.2v22.7h-2.1v-22.7h-7.3v-1.9h16.9l-.3 1.9zm8.4 23.1c-5 0-8-3.7-8-9.8s3.1-9.8 8-9.8c5 0 8 3.6 8 9.8 0 6.1-3 9.8-8 9.8zm27.7-.4l-2.2-6.7h-10.4l-2.2 6.7h-2.2l8.2-24.7h2.7l8.2 24.7h-2.1zm19.9 0h-1.8l-.3-2.9c-1.1 1.9-2.9 3.3-5.7 3.3-4.4 0-7.1-3.7-7.1-9.7 0-5.8 2.8-9.9 7.4-9.9 2.6 0 4.2 1.2 5.3 2.6v-10.1l2.1.3v26.4h.1zm30.2 0h-2.1v-13.2c0-3.1-1.3-4.4-3.2-4.4-2.3 0-3.9 1.6-5.3 3.9v13.6h-2.1v-13.2c0-3.1-1.3-4.4-3.2-4.4-2.3 0-3.9 1.6-5.3 3.9v13.6h-2.1V392h1.8l.2 3.2c1.4-2.1 3.3-3.6 5.8-3.6 2.4 0 4.1 1.4 4.6 3.7 1.5-2.2 3.4-3.7 5.9-3.7 3 0 4.9 2.2 4.9 5.8v13.4h.1zm8.9 0H403V392h2.1v18.8zm-1.1-24c-.9 0-1.5-.7-1.5-1.5s.6-1.5 1.5-1.5c1 0 1.6.7 1.6 1.5s-.6 1.5-1.6 1.5zm13.4 24.4c-2.8 0-4.6-1.7-4.6-5v-12.6h-3.2V392h3.2v-4.5l2.1-.3v4.8h4.9l-.3 1.7h-4.6v12.5c0 2.2.9 3.3 2.8 3.3 1 0 1.9-.3 2.9-.9l.8 1.5c-1.2.7-2.5 1.1-4 1.1z"/></svg>