<?xml version="1.0" encoding="utf-8"?>
<!-- Generator: Adobe Illustrator 19.1.0, SVG Export Plug-In . SVG Version: 6.00 Build 0)  -->
<!DOCTYPE svg PUBLIC "-//W3C//DTD SVG 1.1//EN" "http://www.w3.org/Graphics/SVG/1.1/DTD/svg11.dtd">
<svg version="1.1" id="Layer_1" xmlns="http://www.w3.org/2000/svg" xmlns:xlink="http://www.w3.org/1999/xlink" x="0px" y="0px"
	 viewBox="165.5 362.5 284 75" style="enable-background:new 165.5 362.5 284 75;" xml:space="preserve">
<style type="text/css">
	.st0{fill:#FFFFFF;}
</style>
<g>
	<polygon class="st0" points="334.1,402.3 343.3,402.3 338.7,387.9 	"/>
	<path class="st0" d="M318.5,393.4c-3.6,0-5.8,2.7-5.8,8.1c0,5.3,2.1,8,5.7,8s5.8-2.7,5.8-8.1C324.2,396.1,322.1,393.4,318.5,393.4z
		"/>
	<path class="st0" d="M359,393.3c-3.3,0-5.5,2.8-5.5,8.1c0,5.3,2,8,5.1,8c2.5,0,4-1.3,5.3-3.5v-9.8
		C362.8,394.6,361.3,393.3,359,393.3z"/>
	<path class="st0" d="M285.4,393.2c-3.2,0-4.8,2-4.8,4.8c0,3,1.9,4.8,4.8,4.8c3.1,0,4.8-1.7,4.8-4.7
		C290.2,395.1,288.6,393.2,285.4,393.2z"/>
	<path class="st0" d="M446.5,420L446.5,420c0-0.2,0-0.3,0-0.5v-39c0-9.9-8.1-18-18-18h-245c-9.9,0-18,8.1-18,18v39
		c0,9.9,8.1,18,18,18h245c4.6,0,8.8-1.8,12-4.6c2.6,2.2,5.8,3.9,9,4.6C447.4,435.1,446.3,431.3,446.5,420z M211.3,410.8h-2.7
		l-5.4-22.2l-5.4,22.2h-2.6l-5.4-24.7h2.2l4.7,22.7l5.4-22.7h2.4l5.5,22.7l4.7-22.7h2.1L211.3,410.8z M223.8,410.8h-2.1V392h2.1
		V410.8z M222.7,386.8c-0.9,0-1.5-0.7-1.5-1.5s0.6-1.5,1.5-1.5c1,0,1.6,0.7,1.6,1.5S223.6,386.8,222.7,386.8z M233.9,411.2
		c-2,0-3.3-1.2-3.3-3.6v-23.3l2.1-0.3v23.5c0,1.2,0.5,1.8,1.5,1.8c0.5,0,0.9-0.1,1.3-0.3l0.6,1.5C235.4,411,234.6,411.2,233.9,411.2
		z M243.7,411.2c-2,0-3.3-1.2-3.3-3.6v-23.3l2.1-0.3v23.5c0,1.2,0.5,1.8,1.5,1.8c0.5,0,0.9-0.1,1.3-0.3l0.6,1.5
		C245.3,411,244.5,411.2,243.7,411.2z M252.7,410.8h-2.1V392h2.1V410.8z M251.6,386.8c-0.9,0-1.5-0.7-1.5-1.5s0.6-1.5,1.5-1.5
		c1,0,1.6,0.7,1.6,1.5S252.6,386.8,251.6,386.8z M273.2,410.8h-2.1v-13.2c0-3.1-1.3-4.4-3.6-4.4c-2.6,0-4.3,1.6-5.8,3.9v13.6h-2.1
		V392h1.8l0.2,3.2c1.5-2.1,3.6-3.6,6.3-3.6c3.4,0,5.3,2.1,5.3,5.8L273.2,410.8L273.2,410.8z M292.3,398.1c0,3.7-2.6,6.2-6.8,6.2
		c-0.9,0-1.7-0.1-2.4-0.4c-0.9,0.5-1.4,1.3-1.4,2.2c0,1.1,0.7,1.9,3,1.9h3.1c3.7,0,6,2,6,4.8c0,3.4-2.7,5.4-8.2,5.4
		c-5.7,0-7.8-1.7-7.8-5.4h1.9c0,2.6,1.4,3.7,5.9,3.7c4.4,0,6-1.3,6-3.6c0-2-1.6-3.1-4.2-3.1h-3.1c-3.1,0-4.6-1.5-4.6-3.3
		c0-1.3,0.8-2.4,2.1-3.2c-2.2-1.1-3.2-2.8-3.2-5.3c0-3.8,2.8-6.4,6.9-6.4c5,0.1,6.4-0.5,8.2-1.2l0.6,2c-1.3,0.4-3,0.5-5.2,0.5
		C291.1,393.9,292.3,395.5,292.3,398.1z M310,388.1h-7.2v22.7h-2.1v-22.7h-7.3v-1.9h16.9L310,388.1z M318.4,411.2c-5,0-8-3.7-8-9.8
		s3.1-9.8,8-9.8c5,0,8,3.6,8,9.8C326.4,407.5,323.4,411.2,318.4,411.2z M346.1,410.8l-2.2-6.7h-10.4l-2.2,6.7h-2.2l8.2-24.7h2.7
		l8.2,24.7H346.1z M366,410.8h-1.8l-0.3-2.9c-1.1,1.9-2.9,3.3-5.7,3.3c-4.4,0-7.1-3.7-7.1-9.7c0-5.8,2.8-9.9,7.4-9.9
		c2.6,0,4.2,1.2,5.3,2.6v-10.1l2.1,0.3v26.4H366z M396.2,410.8h-2.1v-13.2c0-3.1-1.3-4.4-3.2-4.4c-2.3,0-3.9,1.6-5.3,3.9v13.6h-2.1
		v-13.2c0-3.1-1.3-4.4-3.2-4.4c-2.3,0-3.9,1.6-5.3,3.9v13.6h-2.1V392h1.8l0.2,3.2c1.4-2.1,3.3-3.6,5.8-3.6c2.4,0,4.1,1.4,4.6,3.7
		c1.5-2.2,3.4-3.7,5.9-3.7c3,0,4.9,2.2,4.9,5.8v13.4H396.2z M405.1,410.8H403V392h2.1V410.8z M404,386.8c-0.9,0-1.5-0.7-1.5-1.5
		s0.6-1.5,1.5-1.5c1,0,1.6,0.7,1.6,1.5S405,386.8,404,386.8z M417.4,411.2c-2.8,0-4.6-1.7-4.6-5v-12.6h-3.2V392h3.2v-4.5l2.1-0.3
		v4.8h4.9l-0.3,1.7h-4.6v12.5c0,2.2,0.9,3.3,2.8,3.3c1,0,1.9-0.3,2.9-0.9l0.8,1.5C420.2,410.8,418.9,411.2,417.4,411.2z"/>
</g>
</svg>
